<svg width="24" height="24" viewBox="0 0 24 24" fill="none" xmlns="http://www.w3.org/2000/svg">
<path d="M12 23C16.56 23 20.33 19.6 20.92 15.2C21.01 14.56 20.44 13.99 19.8 14.08C15.4 14.67 12 18.44 12 23ZM12 23C7.44 23 3.67 19.6 3.08 15.2C2.99 14.56 3.56 13.99 4.2 14.08C8.6 14.67 12 18.44 12 23ZM5.6 11.25C5.6 12.63 6.72 13.75 8.1 13.75C8.63 13.75 9.11 13.59 9.52 13.31L9.5 13.5C9.5 14.88 10.62 16 12 16C13.38 16 14.5 14.88 14.5 13.5L14.48 13.31C14.88 13.59 15.37 13.75 15.9 13.75C17.28 13.75 18.4 12.63 18.4 11.25C18.4 10.25 17.81 9.4 16.97 9C17.81 8.6 18.4 7.75 18.4 6.75C18.4 5.37 17.28 4.25 15.9 4.25C15.37 4.25 14.89 4.41 14.48 4.69L14.5 4.5C14.5 3.12 13.38 2 12 2C10.62 2 9.5 3.12 9.5 4.5L9.52 4.69C9.12 4.41 8.63 4.25 8.1 4.25C6.72 4.25 5.6 5.37 5.6 6.75C5.6 7.75 6.19 8.6 7.03 9C6.19 9.4 5.6 10.25 5.6 11.25Z" stroke="#313334" stroke-width="2"/>
<circle cx="12" cy="9" r="1" fill="#313334"/>
</svg>
